<svg xmlns="http://www.w3.org/2000/svg" xmlns:xlink="http://www.w3.org/1999/xlink" width="500" zoomAndPan="magnify" viewBox="0 0 375 374.999991" height="500" preserveAspectRatio="xMidYMid meet" version="1.0"><path fill="#e74723" d="M 287.234375 187.5 C 287.234375 182.378906 284.566406 177.691406 280.167969 175.097656 C 280.167969 175.097656 152.378906 99.589844 152.378906 99.589844 C 147.910156 96.921875 142.429688 96.851562 137.882812 99.519531 C 133.339844 102.1875 130.601562 106.804688 130.601562 112.066406 L 130.601562 263.078125 C 130.601562 268.339844 133.339844 273.027344 137.882812 275.625 C 140.121094 276.921875 142.570312 277.570312 145.023438 277.570312 C 147.476562 277.570312 150.070312 276.921875 152.378906 275.554688 L 280.167969 200.046875 C 284.566406 197.453125 287.234375 192.765625 287.234375 187.644531 Z M 287.234375 187.5 " fill-opacity="1" fill-rule="nonzero"/><path fill="#e74723" d="M 289.109375 85.167969 C 292.140625 88.125 294.953125 91.226562 297.621094 94.398438 L 330.722656 66.492188 C 327.257812 62.378906 323.507812 58.269531 319.617188 54.445312 Z M 289.109375 85.167969 " fill-opacity="1" fill-rule="nonzero"/><path fill="#e74723" d="M 281.394531 349.832031 L 259.6875 312.402344 C 256.082031 314.496094 252.332031 316.441406 248.507812 318.246094 L 266.898438 357.402344 C 271.875 355.097656 276.707031 352.570312 281.394531 349.832031 Z M 281.394531 349.832031 " fill-opacity="1" fill-rule="nonzero"/><path fill="#e74723" d="M 259.183594 62.308594 C 262.789062 64.398438 266.394531 66.632812 269.785156 69.015625 L 294.519531 33.535156 C 290.121094 30.433594 285.433594 27.476562 280.746094 24.808594 Z M 259.183594 62.308594 " fill-opacity="1" fill-rule="nonzero"/><path fill="#e74723" d="M 372.042969 154.183594 C 371.105469 148.847656 369.878906 143.507812 368.4375 138.246094 L 326.683594 149.566406 C 327.765625 153.605469 328.703125 157.714844 329.421875 161.828125 Z M 372.042969 154.183594 " fill-opacity="1" fill-rule="nonzero"/><path fill="#e74723" d="M 171.417969 374.351562 C 172.210938 374.351562 173.003906 374.351562 173.796875 374.421875 C 178.339844 374.785156 182.882812 375 187.5 375 C 188.292969 375 189.085938 374.929688 189.878906 374.855469 L 187.644531 331.730469 C 183.75 331.804688 179.207031 331.585938 175.097656 331.226562 L 174.519531 338.292969 C 96.996094 331.660156 36.058594 266.753906 36.058594 187.5 C 36.058594 103.847656 103.773438 36.128906 187.429688 36.058594 L 187.429688 43.269531 C 191.539062 43.269531 195.578125 43.414062 199.617188 43.773438 L 203.222656 0.648438 C 198.027344 0.214844 192.691406 0 187.5 0 L 186.996094 0 C 83.652344 0.289062 0 84.085938 0 187.5 C 0 290.914062 75.433594 366.128906 171.417969 374.277344 Z M 171.417969 374.351562 " fill-opacity="1" fill-rule="nonzero"/><path fill="#e74723" d="M 375 187.5 L 375 186.777344 L 331.730469 187.5 C 331.730469 191.683594 331.515625 195.9375 331.152344 200.046875 L 374.277344 203.796875 C 374.785156 198.390625 375 192.910156 375 187.5 Z M 375 187.5 " fill-opacity="1" fill-rule="nonzero"/><path fill="#e74723" d="M 320.121094 320.046875 L 289.542969 289.398438 C 286.585938 292.355469 283.484375 295.242188 280.242188 297.980469 L 308.148438 331.082031 C 312.332031 327.546875 316.371094 323.796875 320.121094 320.046875 Z M 320.121094 320.046875 " fill-opacity="1" fill-rule="nonzero"/><path fill="#e74723" d="M 368.652344 235.960938 L 326.828125 224.855469 C 325.816406 228.820312 324.519531 232.859375 323.078125 236.828125 L 363.75 251.609375 C 365.625 246.492188 367.285156 241.226562 368.652344 235.960938 Z M 368.652344 235.960938 " fill-opacity="1" fill-rule="nonzero"/><path fill="#e74723" d="M 349.902344 281.25 L 312.476562 259.542969 C 310.382812 263.222656 308.078125 266.753906 305.695312 270.144531 L 341.105469 295.023438 C 344.207031 290.554688 347.234375 285.9375 349.902344 281.25 Z M 349.902344 281.25 " fill-opacity="1" fill-rule="nonzero"/><path fill="#e74723" d="M 235.382812 6.203125 L 224.421875 48.027344 C 228.390625 49.109375 232.429688 50.335938 236.394531 51.777344 L 251.035156 11.035156 C 245.914062 9.230469 240.648438 7.570312 235.382812 6.203125 Z M 235.382812 6.203125 " fill-opacity="1" fill-rule="nonzero"/><path fill="#e74723" d="M 220.242188 372.117188 C 225.578125 371.179688 230.914062 370.023438 236.179688 368.582031 L 225 326.828125 C 220.960938 327.910156 216.777344 328.847656 212.667969 329.566406 Z M 220.242188 372.117188 " fill-opacity="1" fill-rule="nonzero"/><path fill="#e74723" d="M 312.1875 114.878906 C 314.277344 118.558594 316.226562 122.308594 318.027344 126.058594 L 357.1875 107.597656 C 354.878906 102.691406 352.285156 97.859375 349.542969 93.101562 Z M 312.1875 114.878906 " fill-opacity="1" fill-rule="nonzero"/></svg>